<?xml version="1.0" encoding="UTF-8" standalone="no"?>
<svg
   xmlns:dc="http://purl.org/dc/elements/1.1/"
   xmlns:cc="http://creativecommons.org/ns#"
   xmlns:rdf="http://www.w3.org/1999/02/22-rdf-syntax-ns#"
   xmlns:svg="http://www.w3.org/2000/svg"
   xmlns="http://www.w3.org/2000/svg"
   viewBox="0 0 595.27557 841.88977"
   id="svg9"
   height="841.88977"
   width="595.27557"
   version="1.1">
  <metadata
     id="metadata15">
    <rdf:RDF>
      <cc:Work
         rdf:about="">
        <dc:format>image/svg+xml</dc:format>
        <dc:type
           rdf:resource="http://purl.org/dc/dcmitype/StillImage" />
      </cc:Work>
    </rdf:RDF>
  </metadata>
  <defs
     id="defs13" />
  <path
     id="path2"
     style="fill:#1b1918;fill-rule:evenodd;stroke:#1b1918;stroke-width:0.56690001;stroke-linecap:butt;stroke-linejoin:miter;stroke-dasharray:none"
     d="m 95.2562,375.5106 c -3.833,15.7247 -5.8954,32.266 -5.8954,49.132 0,116.7867 97.2769,211.4611 217.2741,211.4611 119.9973,0 217.2742,-94.6744 217.2742,-211.4611 0,-16.6118 -1.9808,-32.8039 -5.7124,-48.3209 15.703,-11.6762 28.1942,-27.5897 19.3222,-52.1948 -0.9741,11.1193 -49.2833,25.3265 -59.6151,30.7844 36.3205,-21.5442 58.0868,-37.7458 52.8336,-75.0436 0.7446,6.3009 -36.5803,25.8805 -5.9273,-13.2034 20.027,-30.8994 18.1306,-68.2211 0.6281,-104.2529 -1.4117,21.7663 -33.142,62.2842 -72.8539,105.5797 -38.5793,-34.1073 -89.7224,-54.8094 -145.9494,-54.8094 -55.8581,0 -106.8005,20.4896 -145.2828,54.1628 -39.4965,-43.1062 -70.8553,-83.2507 -72.2613,-104.9331 -17.5026,36.0318 -19.399,73.3535 0.628,104.2529 30.6531,39.0839 -6.6718,19.5043 -5.9273,13.2034 -5.2531,37.2978 16.5131,53.4994 52.8336,75.0436 -10.3318,-5.4579 -58.6409,-19.6651 -59.6151,-30.7844 -8.6789,24.0701 3.0292,39.7787 18.2462,51.3837 z" />
  <g
     id="Layer1000">
    <path
       id="path4"
       style="fill:#ffffff;fill-rule:evenodd;stroke:#ffffff;stroke-width:0.21600001;stroke-linecap:butt;stroke-linejoin:miter;stroke-dasharray:none"
       d="m 287.5588,419.8995 c 0.1533,0.173 17.6996,-40.9686 -1.4608,-45.3734 -1.3429,-2.1148 -5.1701,-2.4725 -6.3992,-1.1489 0.8074,-5.0778 6.8379,-7.2766 11.3438,-6.6087 5.1235,2.6203 11.671,6.4399 16.9277,5.9788 7.848,2.993 18.7526,15.9163 22.2418,23.9693 -6.8518,-6.6808 -14.0307,0.5133 -9.0021,5.2488 -1.2549,4.3721 4.6021,20.341 4.6892,20.2446 35.7309,-39.6563 195.7692,-197.5411 198.4796,-241.581 l 0.4842,1.3971 c 11.9929,57.6028 -6.0702,81.1674 -11.9183,90.2557 -3.3697,4.3697 -24.222,31.0503 -2.4175,26.4326 9.1878,-1.9464 12.5731,-5.0173 15.4509,-8.7006 -7.8253,42.668 -50.365,52.6096 -65.2971,77.0139 8.5781,-4.5672 71.1981,-23.2864 71.9779,-32.5372 6.2847,37.5665 -55.4566,49.5472 -59.6779,62.5851 -0.3708,7.285 10.3413,7.7451 16.0899,5.8772 -5.7611,14.5085 -63.4869,21.1939 -75.5615,34.9574 3.1174,1.1075 12.992,-4.9262 22.1712,-3.0095 15.3971,3.2152 24.9608,-0.284 31.9061,-5.8881 -15.7538,40.0588 -60.0127,47.4222 -90.3896,42.6797 -4.2023,-0.4615 -15.0282,-4.1858 -16.181,1.591 2.1042,2.5002 17.5525,5.2041 16.3405,17.8354 -2.0131,-6.5321 -34.7186,-0.5797 -38.6517,-7.5097 -2.2821,5.3443 -4.5797,32.1002 5.428,31.9327 8.6199,-0.5074 4.0434,-11.1344 8.885,-19.084 0.1897,9.3061 10.9017,12.0539 6.575,19.2205 -7.6115,14.2574 -9.4009,36.1408 5.884,16.7074 0.7041,14.3294 -11.7922,25.0918 -24.7112,26.4445 2.0414,-3.973 -3.1927,-6.9765 3.1686,-12.5442 -6.0741,-0.178 -7.9862,8.3115 -16.6242,7.8678 2.8326,-3.6474 8.5605,-22.8864 2.998,-34.3758 -8.1774,25.0761 -16.0727,19.1807 -15.6363,-5.9799 1.1966,-6.7847 -13.0383,-18.4322 -8.185,-38.4881 -1.1457,4.886 -8.1264,15.3643 -6.2017,27.8979 1.4301,9.3096 14.4555,18.5219 -1.6357,34.3952 1.7814,-12.5081 -2.3347,-17.5346 -6.3579,-26.0334 -11.3037,3.1353 -3.0871,20.4945 -2.6745,24.1954 0.1322,8.257 -0.9071,21.0148 -7.8009,12.4518 -3.2117,-5.8837 1.347,-9.2275 -0.0446,-12.5756 -3.513,8.7525 -11.8404,6.447 -6.5064,22.0228 -1.4255,-2.3723 -23.6046,3.9742 -29.8389,-22.8995 2.7968,5.2992 12.7779,9.4381 11.7244,1.6669 -0.5238,-3.8658 -4.1678,-10.0587 -4.8474,-14.2509 -6.5972,-14.3081 6.5998,-20.2201 2.2049,-24.1788 7.7072,2.9752 2.7582,18.1964 10.8617,21.4432 8.2884,-4.169 8.4517,-18.1585 7.8744,-25.6491 -0.3356,-4.3618 -1.2635,-6.4666 -1.8227,-9.9797 -9.6822,3.0168 -33.2047,-0.1861 -34.8651,5.3296 -1.2951,-12.623 14.135,-15.4287 16.2227,-17.9427 -1.1909,-5.7691 -11.992,-1.9734 -16.1911,-1.4843 -30.3451,4.9425 -74.6515,-2.1293 -90.6688,-42.0835 6.982,5.5583 16.5685,8.9945 31.9442,5.6779 9.1663,-1.9771 19.0805,3.9914 22.1906,2.8634 -12.1651,-13.6836 -69.9337,-19.9887 -75.7902,-34.4589 5.7608,1.8299 16.4696,1.2993 16.0508,-5.9831 -4.3071,-13.0098 -66.1259,-24.5836 -60.0888,-62.1907 0.8408,9.2455 63.5826,27.5518 72.1907,32.0624 -15.0925,-24.3054 -57.6969,-33.9666 -65.803,-76.5821 2.902,3.6643 6.3075,6.7128 15.5079,8.5987 21.8344,4.4739 0.8068,-22.0688 -2.5916,-26.4161 C 93.622,262.157 75.404,238.7119 87.0173,181.0314 l 0.475,-1.4003 c 3.0004,44.0211 164.0752,200.8484 200.0665,240.2684 z" />
    <path
       id="path6"
       style="fill:#f26d20;fill-rule:evenodd;stroke:#f26d20;stroke-width:0.56690001;stroke-linecap:butt;stroke-linejoin:miter;stroke-dasharray:none"
       d="m 306.2285,269.0893 c 41.9673,-0.1382 79.8761,16.5631 107.6693,43.6708 l 18.0177,-18.6509 c -32.5449,-31.7459 -76.9191,-51.2204 -125.7727,-51.0595 -48.8536,0.1609 -93.0986,19.9272 -125.4337,51.8869 l 18.1401,18.5317 c 27.6141,-27.2901 65.4121,-44.2408 107.3793,-44.379 z m 1.1104,337.1464 c 94.3797,-0.3108 171.5595,-73.7931 178.8971,-167.0085 l -31.4358,29.1786 C 436.1115,532.8212 377.1963,579.9657 307.2531,580.1961 237.31,580.4264 178.0855,533.671 158.9729,469.3801 l -31.6273,-28.971 c 7.9514,93.1651 85.6136,166.1374 179.9933,165.8266 z" />
  </g>
</svg>
